<svg version="1.1" id="Layer_1" xmlns="http://www.w3.org/2000/svg" xmlns:xlink="http://www.w3.org/1999/xlink" x="0px" y="0px"
	 width="100%" viewBox="0 0 400 390" enable-background="new 0 0 400 390" xml:space="preserve">
<path fill="#0090DA" opacity="1.000000" stroke="none" 
	d="
M1.000002,373.000000 
	C1.000000,256.979095 1.000000,140.958206 1.351793,24.418221 
	C3.364026,21.386833 4.484109,18.028114 6.803231,16.547592 
	C10.965574,13.890359 15.848381,12.361672 20.706898,10.356459 
	C21.352652,10.335884 21.721624,10.320236 22.145761,10.701054 
	C24.665121,15.641642 29.128513,15.446727 33.383446,15.975509 
	C35.728134,16.266893 38.039112,17.013121 40.299221,17.755449 
	C43.187256,18.704016 45.987423,19.918104 48.867386,20.894047 
	C50.381805,21.407238 52.034409,21.519211 53.539051,22.053370 
	C56.990147,23.278530 60.392590,24.641672 63.806515,25.970055 
	C64.963379,26.420198 66.104210,26.914583 67.237007,27.422989 
	C69.828217,28.585941 72.410362,29.769119 74.995316,30.945980 
	C75.969833,31.389650 76.981201,31.769920 77.907143,32.299156 
	C79.926353,33.453247 81.844193,34.795326 83.906509,35.861187 
	C88.365990,38.165958 92.831398,40.476761 97.409752,42.527550 
	C100.244431,43.797295 103.291023,44.593937 106.466652,45.690144 
	C106.690811,45.777336 107.161888,45.876991 107.124176,46.255386 
	C108.282867,47.990223 109.251442,49.710682 110.721115,50.630466 
	C114.227921,52.825165 118.207329,54.307961 121.568115,56.683453 
	C127.926804,61.177937 133.977585,66.107246 140.172043,70.835281 
	C142.441025,72.567139 144.754639,74.240555 147.038269,76.321083 
	C147.291382,79.803505 149.018341,81.146362 152.045563,80.939438 
	C152.021149,80.981117 152.099838,80.925064 152.105042,81.292648 
	C154.054688,82.786583 155.999115,83.912941 157.969299,85.267151 
	C157.995041,85.495003 158.041016,85.951294 158.062393,86.301300 
	C158.375214,87.233147 158.539825,87.942101 158.976807,88.378052 
	C167.822006,97.202560 176.692245,106.002007 185.573166,114.790627 
	C187.690689,116.886139 189.864792,118.924492 192.144882,121.297195 
	C193.861679,123.059845 195.446457,124.514435 197.064194,126.311394 
	C198.073074,128.098694 199.048996,129.543625 199.981903,131.345642 
	C195.597641,138.795151 191.247681,145.882248 186.919022,152.982315 
	C184.896927,156.299088 182.906189,159.635101 180.918854,162.972870 
	C178.049591,167.791840 174.954132,172.496597 172.407761,177.481293 
	C170.094177,182.010300 168.618469,186.964539 166.346878,191.518555 
	C163.876770,196.470596 160.371994,200.957062 158.306534,206.047485 
	C155.800873,212.222794 154.409454,218.843399 152.364502,225.216339 
	C151.698517,227.291824 150.305267,229.130142 149.600174,231.198135 
	C149.089081,232.697159 149.163940,234.395950 148.980774,236.336655 
	C148.979385,237.108994 148.974701,237.550354 148.586563,238.079712 
	C145.474731,248.311920 139.958649,257.895050 141.633743,269.041473 
	C140.167130,270.793701 138.225632,272.445892 138.104279,274.222443 
	C137.494507,283.148804 137.360336,292.107666 137.057297,301.422821 
	C137.059753,302.525909 137.064026,303.261261 136.687668,304.039551 
	C132.638870,307.304871 131.763016,312.924042 133.953003,319.342896 
	C133.622711,320.792999 133.321594,321.897827 132.719009,323.293030 
	C132.285736,330.944031 132.093979,338.304749 132.109756,345.665039 
	C132.111435,346.448517 133.327133,347.229370 133.981949,348.385315 
	C133.983414,349.506989 133.982574,350.254761 133.691895,351.290283 
	C133.097672,356.776093 131.218292,362.374298 137.063232,366.375366 
	C137.058502,367.475739 137.059082,368.209320 137.039276,369.417358 
	C137.012573,376.927856 137.006287,383.963928 137.000000,391.000000 
	C96.645775,391.000000 56.291542,391.000000 15.445453,390.586029 
	C15.891892,383.584534 11.399828,382.238708 6.162833,381.611938 
	C6.598253,381.217651 7.033674,380.823364 7.469095,380.429077 
	C5.312731,377.952728 3.156368,375.476349 1.000002,373.000000 
z"/>
<path fill="#A4CE4E" opacity="1.000000" stroke="none" 
	d="
M401.000000,15.000000 
	C401.000000,137.354233 401.000000,259.708466 400.605957,382.532898 
	C394.921753,383.065857 392.818817,386.002991 393.000000,391.000000 
	C352.645782,391.000000 312.291534,391.000000 271.452850,390.549744 
	C271.075317,387.284515 270.040924,383.396240 271.495911,381.849030 
	C276.550140,376.474457 275.512115,369.713409 275.609070,363.882812 
	C275.989868,340.983337 275.279663,318.064789 274.871490,295.155182 
	C274.846527,293.752441 273.869049,292.384369 273.443909,290.967407 
	C272.576752,288.077606 271.450836,285.210297 271.052216,282.250153 
	C270.634155,279.145538 271.229584,275.908936 270.858429,272.792358 
	C270.436981,269.253540 269.556549,265.751892 268.646912,262.294281 
	C267.926819,259.557251 266.662354,256.958405 266.009186,254.210342 
	C265.441650,251.822495 265.642944,249.250381 265.062103,246.867523 
	C263.774445,241.584747 258.844513,237.275070 260.909637,230.718002 
	C259.307007,228.220200 257.667145,226.100281 255.891037,223.746826 
	C255.440582,223.348648 255.126419,223.183990 254.793762,222.721939 
	C254.745773,222.028336 254.716263,221.632156 254.790649,220.805847 
	C254.614975,218.460236 255.008087,215.534271 253.930786,214.817108 
	C250.582703,212.588287 251.400284,209.462173 250.817474,206.470016 
	C250.336121,203.998749 248.885422,201.707840 247.801620,199.365997 
	C247.262894,198.201935 246.484879,197.144867 245.984818,195.967316 
	C243.736435,190.672943 241.837463,185.207184 239.254135,180.084824 
	C236.910416,175.437592 233.806046,171.177872 231.106949,166.705093 
	C226.596390,159.230423 222.130066,151.728973 217.667679,144.225372 
	C215.054489,139.831238 212.485046,135.411102 210.045807,130.662262 
	C211.690079,128.355316 213.071091,126.289017 214.698410,124.439438 
	C221.920059,116.231476 229.051437,107.934700 236.529510,99.964706 
	C242.619827,93.473770 249.056290,87.295593 255.531799,81.182678 
	C259.334412,77.592957 263.392365,74.242409 267.559601,71.079605 
	C271.196808,68.319046 275.189209,66.031677 278.950867,63.428631 
	C284.941467,59.283192 290.844849,55.011707 296.834686,50.865170 
	C301.184814,47.853745 305.615112,44.958065 310.225220,41.897091 
	C310.710388,41.581837 310.897003,41.320900 310.976868,40.889389 
	C310.953094,40.778179 310.833099,40.584976 311.059814,40.572289 
	C311.286560,40.559597 311.739685,40.528450 312.118469,40.676643 
	C313.300354,40.831314 314.103485,40.837784 315.283264,40.858353 
	C318.134644,40.006641 321.438354,40.043747 321.232971,35.736076 
	C322.655548,35.331841 323.827423,35.177361 325.214050,35.269890 
	C328.387024,35.371258 331.193665,35.038380 331.218567,30.823717 
	C332.590210,30.707558 333.748505,30.772026 335.301514,30.886684 
	C339.181671,30.845795 342.124176,29.951485 343.250732,25.752243 
	C344.667511,25.340298 345.833527,25.175919 347.231384,25.277834 
	C350.976776,25.206888 355.186340,26.069910 356.010773,20.610516 
	C356.230896,20.505577 356.695251,20.356375 357.067932,20.542980 
	C358.260101,20.757362 359.079559,20.785141 360.309601,20.870762 
	C364.206360,20.027678 368.838348,21.272158 370.002594,15.844178 
	C370.024353,15.705531 369.998749,15.426014 370.282104,15.462826 
	C370.940338,15.442383 371.315216,15.385126 372.061584,15.520266 
	C373.254913,15.744991 374.076752,15.777322 375.320435,15.869140 
	C379.672760,15.349235 384.433502,16.500404 386.049866,10.735156 
	C386.164337,10.111826 386.234161,9.758029 386.653503,9.365765 
	C389.351776,9.809087 391.700439,10.290877 394.062561,11.161814 
	C395.067200,15.344112 398.091064,15.056706 401.000000,15.000000 
z"/>
<path fill="#0061A0" opacity="1.000000" stroke="none" 
	d="
M267.000000,391.000000 
	C226.979111,391.000000 186.958206,391.000000 146.465012,390.552704 
	C145.202591,385.453491 144.559082,380.769958 143.565155,376.161987 
	C143.004501,373.562683 141.130692,371.095215 141.105270,368.555786 
	C140.898651,347.918945 140.953857,327.279053 141.015442,306.640320 
	C141.030273,301.668152 139.754868,296.362793 144.233414,292.298828 
	C144.841110,291.747406 144.919678,290.450256 144.978012,289.482422 
	C145.356537,283.204102 145.601654,276.917236 146.029358,270.642639 
	C146.148636,268.893036 146.166824,266.620300 147.214310,265.545441 
	C150.577332,262.094604 150.950943,257.969635 150.998718,253.603577 
	C151.041016,249.737930 150.080048,245.679382 154.256729,242.863983 
	C155.346344,242.129456 155.798096,239.876099 155.856857,238.294830 
	C156.016922,233.987137 157.219452,230.404190 159.176788,226.349411 
	C161.807327,220.900055 162.403122,214.373718 165.784988,208.918762 
	C167.183929,206.662231 167.811890,203.942032 168.961395,201.513611 
	C171.335464,196.498245 171.148865,190.303772 175.907028,186.373138 
	C176.081833,186.228745 175.859848,185.675110 176.003723,185.410614 
	C176.910217,183.744110 177.859756,182.100708 178.811493,180.459213 
	C179.470383,179.322784 180.197678,178.224380 180.821579,177.069626 
	C183.017960,173.004410 185.059067,168.849670 187.391968,164.865265 
	C190.136734,160.177383 192.738800,155.322250 196.117401,151.113297 
	C199.342987,147.094940 199.763962,140.105026 207.146301,140.296448 
	C212.015701,147.450760 217.023468,154.120331 221.383774,161.189270 
	C225.237991,167.437759 228.338394,174.148743 231.836578,180.620407 
	C233.465866,183.634628 235.597183,186.422836 236.886826,189.565491 
	C239.282639,195.403717 241.212082,201.432617 243.385880,207.363739 
	C243.603134,207.956497 244.263199,208.374603 244.550247,208.956421 
	C245.435287,210.750381 246.527573,212.509415 247.023239,214.416183 
	C248.896744,221.623520 253.285416,228.056961 253.577927,235.751389 
	C253.593033,236.148972 254.297623,236.476883 254.467102,236.919281 
	C255.371521,239.280197 256.370972,241.623093 257.029114,244.055664 
	C258.003693,247.657700 258.617249,251.357071 259.580811,254.962524 
	C260.232239,257.400024 261.687958,259.693481 261.970612,262.145142 
	C262.767609,269.058075 261.060577,276.459717 266.511169,282.369080 
	C267.069092,282.973999 266.984650,284.268097 267.015076,285.248077 
	C267.376160,296.874176 268.027496,308.502930 267.969574,320.127869 
	C267.851837,343.752930 267.345917,367.376068 267.000000,391.000000 
z"/>
<path fill="#FFFFFF" opacity="1.000000" stroke="none" 
	d="
M1.000000,13.000000 
	C1.000000,9.004780 1.000000,5.009561 1.000000,1.010756 
	C134.333328,1.007170 267.666656,1.007170 401.000000,1.007101 
	C401.000000,2.671707 401.000000,4.336382 400.531494,6.510493 
	C395.071442,7.023400 389.943573,6.294446 385.118622,7.192690 
	C376.745178,8.751543 368.292084,10.646829 360.423309,13.783224 
	C357.185242,15.073869 354.180573,16.684826 350.620239,17.490501 
	C347.090424,18.289274 343.917206,20.571053 340.506500,22.010202 
	C335.049347,24.312864 329.523315,26.452202 324.034485,28.680420 
	C323.742737,28.798866 323.546722,29.133762 323.270355,29.312527 
	C319.354889,31.844973 315.732819,35.488731 311.444092,36.635036 
	C304.709106,38.435200 299.723358,42.624199 294.230408,46.231144 
	C291.389648,48.096539 288.579529,50.008610 285.735107,51.868359 
	C280.001587,55.617058 274.185028,59.245968 268.580139,63.177219 
	C267.643646,63.834084 267.601318,65.765770 267.128723,67.107681 
	C267.111633,67.106972 267.094666,67.129135 266.704590,67.086433 
	C264.709015,67.700172 262.859406,68.045036 261.545776,69.074066 
	C258.199829,71.695175 255.076233,74.602692 251.894394,77.430191 
	C243.850983,84.577866 235.359726,91.297424 227.921188,99.028717 
	C220.398621,106.847343 213.925125,115.675323 206.632172,124.007202 
	C204.243332,122.235382 202.319366,120.366096 200.144638,118.858597 
	C198.914169,118.005661 197.271805,117.746925 195.864471,117.165863 
	C195.913971,117.111176 195.781326,117.175758 195.852997,116.765404 
	C196.384293,112.398445 194.080383,111.704170 190.796692,111.911232 
	C190.720062,111.746407 190.692657,111.383904 190.790222,110.987259 
	C188.665527,107.313934 186.794342,103.714966 184.145645,100.829758 
	C179.115463,95.350418 173.736404,90.175949 168.279938,85.114525 
	C166.969589,83.899055 164.788177,83.622643 162.668518,82.882889 
	C159.890121,81.229385 157.450592,79.607353 154.970215,77.753448 
	C154.929352,77.521568 154.843857,77.058510 155.142334,76.869568 
	C155.047745,75.412041 154.992325,73.842636 154.188309,72.940224 
	C152.713394,71.284828 150.975204,69.680855 149.028412,68.666420 
	C144.705185,66.413673 142.159317,60.636288 135.940948,61.788506 
	C135.874283,61.585918 135.791245,61.167416 135.835266,60.796478 
	C134.192734,59.364277 132.506165,58.303017 130.603271,57.193367 
	C130.386963,57.144974 129.955353,57.043636 129.966370,56.660889 
	C128.741638,53.430634 118.980072,47.220661 115.578598,47.214767 
	C115.360291,47.172516 114.927429,47.070503 114.945831,46.683479 
	C114.251999,41.976341 110.859314,42.425949 107.437096,42.265182 
	C106.613434,42.423367 106.157791,42.589596 105.679924,42.650181 
	C105.657700,42.544533 105.688835,42.330864 105.781609,41.924522 
	C105.670769,37.487099 103.263039,36.625736 99.496826,37.261353 
	C98.801254,37.224586 98.403122,37.216705 97.865036,36.875351 
	C95.812431,35.420422 93.899765,34.298965 91.745979,33.131775 
	C91.504852,33.086040 91.018097,33.022709 90.699768,33.015980 
	C90.176064,33.062908 89.970695,33.116566 89.481766,33.160435 
	C88.691345,32.916126 88.184471,32.681614 87.756378,32.070759 
	C85.630470,27.463104 84.781181,27.030886 81.655853,28.804176 
	C81.107132,28.963039 80.890572,29.036427 80.577469,28.875820 
	C79.756477,28.288740 79.032013,27.935650 77.967957,27.357956 
	C75.228348,23.728207 72.209900,21.629789 67.773720,21.951481 
	C66.823387,22.020395 65.522751,21.327665 64.857788,20.569704 
	C61.709572,16.981226 57.839474,16.540190 53.340240,17.552996 
	C53.152744,17.532854 52.822540,17.350636 52.858681,16.955076 
	C50.316654,10.127453 44.649731,12.495895 39.624863,11.979895 
	C27.743555,4.473097 11.613988,4.922602 1.000000,13.000000 
z"/>
<path fill="#3C889A" opacity="1.000000" stroke="none" 
	d="
M267.333313,391.000000 
	C267.345917,367.376068 267.851837,343.752930 267.969574,320.127869 
	C268.027496,308.502930 267.376160,296.874176 267.015076,285.248077 
	C266.984650,284.268097 267.069092,282.973999 266.511169,282.369080 
	C261.060577,276.459717 262.767609,269.058075 261.970612,262.145142 
	C261.687958,259.693481 260.232239,257.400024 259.580811,254.962524 
	C258.617249,251.357071 258.003693,247.657700 257.029114,244.055664 
	C256.370972,241.623093 255.371521,239.280197 254.467102,236.919281 
	C254.297623,236.476883 253.593033,236.148972 253.577927,235.751389 
	C253.285416,228.056961 248.896744,221.623520 247.023239,214.416183 
	C246.527573,212.509415 245.435287,210.750381 244.550247,208.956421 
	C244.263199,208.374603 243.603134,207.956497 243.385880,207.363739 
	C241.212082,201.432617 239.282639,195.403717 236.886826,189.565491 
	C235.597183,186.422836 233.465866,183.634628 231.836578,180.620407 
	C228.338394,174.148743 225.237991,167.437759 221.383774,161.189270 
	C217.023468,154.120331 212.015701,147.450760 207.099823,139.952240 
	C205.292404,138.519974 203.674622,137.742966 202.052307,136.604050 
	C202.366608,134.862701 202.685455,133.483276 203.325104,132.068420 
	C204.073593,132.055893 204.501297,132.078812 205.100342,132.389206 
	C206.538147,134.197357 207.999374,135.596115 209.039688,137.258331 
	C216.194931,148.690903 223.612030,159.980637 230.247818,171.710663 
	C235.631866,181.227982 240.142380,191.248413 244.840469,201.140640 
	C246.871292,205.416718 248.227295,210.011444 250.221283,214.307602 
	C251.367004,216.776138 253.176224,218.936737 254.686768,221.235962 
	C254.716263,221.632156 254.745773,222.028336 254.556290,222.970612 
	C256.366669,230.938980 258.520538,238.329941 260.395477,245.791016 
	C263.052521,256.364380 266.100342,266.890167 267.886810,277.618500 
	C269.950104,290.009308 271.395508,302.567963 272.058044,315.109283 
	C272.756592,328.331879 272.631439,341.636932 272.092041,354.874451 
	C271.600464,366.938263 270.071625,378.959808 269.000000,391.000000 
	C268.555542,391.000000 268.111115,391.000000 267.333313,391.000000 
z"/>
<path fill="#1072AF" opacity="1.000000" stroke="none" 
	d="
M202.056854,136.965973 
	C203.674622,137.742966 205.292404,138.519974 206.956650,139.641159 
	C199.763962,140.105026 199.342987,147.094940 196.117401,151.113297 
	C192.738800,155.322250 190.136734,160.177383 187.391968,164.865265 
	C185.059067,168.849670 183.017960,173.004410 180.821579,177.069626 
	C180.197678,178.224380 179.470383,179.322784 178.811493,180.459213 
	C177.859756,182.100708 176.910217,183.744110 176.003723,185.410614 
	C175.859848,185.675110 176.081833,186.228745 175.907028,186.373138 
	C171.148865,190.303772 171.335464,196.498245 168.961395,201.513611 
	C167.811890,203.942032 167.183929,206.662231 165.784988,208.918762 
	C162.403122,214.373718 161.807327,220.900055 159.176788,226.349411 
	C157.219452,230.404190 156.016922,233.987137 155.856857,238.294830 
	C155.798096,239.876099 155.346344,242.129456 154.256729,242.863983 
	C150.080048,245.679382 151.041016,249.737930 150.998718,253.603577 
	C150.950943,257.969635 150.577332,262.094604 147.214310,265.545441 
	C146.166824,266.620300 146.148636,268.893036 146.029358,270.642639 
	C145.601654,276.917236 145.356537,283.204102 144.978012,289.482422 
	C144.919678,290.450256 144.841110,291.747406 144.233414,292.298828 
	C139.754868,296.362793 141.030273,301.668152 141.015442,306.640320 
	C140.953857,327.279053 140.898651,347.918945 141.105270,368.555786 
	C141.130692,371.095215 143.004501,373.562683 143.565155,376.161987 
	C144.559082,380.769958 145.202591,385.453491 145.996353,390.552704 
	C145.555557,391.000000 145.111099,391.000000 144.329727,390.578339 
	C142.915543,386.183899 144.983002,380.812775 139.025055,378.556519 
	C138.363632,375.052246 137.711655,371.997589 137.059677,368.942932 
	C137.059082,368.209320 137.058502,367.475739 137.338394,366.089813 
	C137.743225,362.958740 137.867569,360.479980 137.998108,357.532532 
	C138.000000,342.042206 137.995728,327.020569 137.998474,311.569946 
	C137.693115,308.759491 137.380707,306.378082 137.068298,303.996643 
	C137.064026,303.261261 137.059753,302.525909 137.436890,301.315796 
	C138.543350,296.896057 139.268402,292.951080 140.379272,288.955322 
	C144.106873,285.632812 144.820541,277.520660 142.069550,273.596375 
	C142.055038,272.514343 142.051010,271.793701 142.423645,270.970276 
	C143.532715,267.581177 144.265137,264.294861 145.371460,260.940674 
	C146.498337,257.251099 147.251312,253.629364 148.157349,249.652802 
	C148.873611,246.536911 149.436813,243.775864 150.383224,240.961700 
	C151.511780,238.275238 152.257111,235.641891 153.156296,232.653381 
	C153.662079,230.368469 153.669006,228.290710 154.422913,226.533386 
	C158.778275,216.381027 163.244339,206.274597 167.801834,196.210999 
	C171.778610,187.429764 175.925720,178.725647 180.334503,169.944092 
	C181.772659,168.261688 182.873886,166.622635 183.980972,164.653717 
	C183.993271,163.884018 183.999710,163.444168 184.341812,162.955566 
	C185.781937,161.268814 186.886383,159.630859 188.000244,157.624512 
	C192.692047,150.492752 197.374451,143.729370 202.056854,136.965973 
z"/>
<path fill="#7AB177" opacity="1.000000" stroke="none" 
	d="
M269.333313,391.000000 
	C270.071625,378.959808 271.600464,366.938263 272.092041,354.874451 
	C272.631439,341.636932 272.756592,328.331879 272.058044,315.109283 
	C271.395508,302.567963 269.950104,290.009308 267.886810,277.618500 
	C266.100342,266.890167 263.052521,256.364380 260.395477,245.791016 
	C258.520538,238.329941 256.366669,230.938980 254.574768,223.268036 
	C255.126419,223.183990 255.440582,223.348648 255.883820,224.114502 
	C257.632721,226.842407 259.252594,228.969147 260.872437,231.095871 
	C258.844513,237.275070 263.774445,241.584747 265.062103,246.867523 
	C265.642944,249.250381 265.441650,251.822495 266.009186,254.210342 
	C266.662354,256.958405 267.926819,259.557251 268.646912,262.294281 
	C269.556549,265.751892 270.436981,269.253540 270.858429,272.792358 
	C271.229584,275.908936 270.634155,279.145538 271.052216,282.250153 
	C271.450836,285.210297 272.576752,288.077606 273.443909,290.967407 
	C273.869049,292.384369 274.846527,293.752441 274.871490,295.155182 
	C275.279663,318.064789 275.989868,340.983337 275.609070,363.882812 
	C275.512115,369.713409 276.550140,376.474457 271.495911,381.849030 
	C270.040924,383.396240 271.075317,387.284515 270.984192,390.549744 
	C270.555542,391.000000 270.111115,391.000000 269.333313,391.000000 
z"/>
<path fill="#E6F2CF" opacity="1.000000" stroke="none" 
	d="
M267.145813,67.108398 
	C267.601318,65.765770 267.643646,63.834084 268.580139,63.177219 
	C274.185028,59.245968 280.001587,55.617058 285.735107,51.868359 
	C288.579529,50.008610 291.389648,48.096539 294.230408,46.231144 
	C299.723358,42.624199 304.709106,38.435200 311.444092,36.635036 
	C315.732819,35.488731 319.354889,31.844973 323.270355,29.312527 
	C323.546722,29.133762 323.742737,28.798866 324.034485,28.680420 
	C329.523315,26.452202 335.049347,24.312864 340.506500,22.010202 
	C343.917206,20.571053 347.090424,18.289274 350.620239,17.490501 
	C354.180573,16.684826 357.185242,15.073869 360.423309,13.783224 
	C368.292084,10.646829 376.745178,8.751543 385.118622,7.192690 
	C389.943573,6.294446 395.071442,7.023400 400.531494,7.009965 
	C401.000000,7.444445 401.000000,7.888889 400.635010,8.666372 
	C399.100098,9.525784 397.930206,10.052156 396.422211,10.617127 
	C395.405792,10.694705 394.727478,10.733685 394.049133,10.772667 
	C391.700439,10.290877 389.351776,9.809087 386.250671,9.240168 
	C380.895569,11.211313 376.292847,13.269588 371.690125,15.327868 
	C371.315216,15.385126 370.940338,15.442383 370.209473,15.167828 
	C364.461945,14.279394 360.336334,16.740442 356.695251,20.356375 
	C356.695251,20.356375 356.230896,20.505577 355.869385,20.589411 
	C355.507874,20.673244 355.222321,20.616871 355.106445,20.312328 
	C353.338165,20.205673 351.591095,20.131353 350.055389,20.665094 
	C347.738373,21.470367 345.582825,22.730984 343.334259,23.743998 
	C334.663544,27.650337 325.915314,31.394522 317.353607,35.525890 
	C315.183075,36.573265 313.595245,38.828316 311.739685,40.528450 
	C311.739685,40.528450 311.286560,40.559597 310.833801,40.369064 
	C304.153259,43.650085 297.761688,46.861633 291.737396,50.656170 
	C283.395477,55.910480 275.329773,61.603329 267.145813,67.108398 
z"/>
<path fill="#BBE1F5" opacity="1.000000" stroke="none" 
	d="
M1.000000,13.428463 
	C11.613988,4.922602 27.743555,4.473097 39.596687,12.308191 
	C39.876019,12.897819 39.829510,13.112710 39.375206,13.310268 
	C36.328758,12.840708 33.690113,12.388480 30.999302,11.609674 
	C30.244143,10.922533 29.541143,10.561973 28.442957,10.156868 
	C26.062044,10.176412 24.076323,10.240500 22.090599,10.304589 
	C21.721624,10.320236 21.352652,10.335884 20.498707,10.071758 
	C11.177497,7.702496 5.973661,13.113602 1.000000,19.000000 
	C1.000000,17.285641 1.000000,15.571283 1.000000,13.428463 
z"/>
<path fill="#45AEE4" opacity="1.000000" stroke="none" 
	d="
M1.000002,373.437500 
	C3.156368,375.476349 5.312731,377.952728 7.469095,380.429077 
	C7.033674,380.823364 6.598253,381.217651 6.162833,381.611938 
	C11.399828,382.238708 15.891892,383.584534 14.976795,390.586029 
	C13.285642,391.000000 11.571282,391.000000 9.423771,390.598083 
	C9.305411,384.463318 4.018251,383.120728 1.000000,380.000000 
	C1.000000,377.958344 1.000000,375.916656 1.000002,373.437500 
z"/>
<path fill="#49B0E5" opacity="1.000000" stroke="none" 
	d="
M1.000000,19.416666 
	C5.973661,13.113602 11.177497,7.702496 20.221928,10.076685 
	C15.848381,12.361672 10.965574,13.890359 6.803231,16.547592 
	C4.484109,18.028114 3.364026,21.386833 1.351793,23.949562 
	C1.000000,22.611111 1.000000,21.222221 1.000000,19.416666 
z"/>
<path fill="#BFE3F6" opacity="1.000000" stroke="none" 
	d="
M1.000000,380.482971 
	C4.018251,383.120728 9.305411,384.463318 8.995308,390.598083 
	C6.400492,391.000000 3.800984,391.000000 1.000000,391.000000 
	C1.000000,387.656799 1.000000,384.311371 1.000000,380.482971 
z"/>
<path fill="#ACD35F" opacity="1.000000" stroke="none" 
	d="
M393.494751,391.000000 
	C392.818817,386.002991 394.921753,383.065857 400.605957,383.001587 
	C401.000000,385.582458 401.000000,388.164917 401.000000,391.000000 
	C398.666077,391.000000 396.327789,391.000000 393.494751,391.000000 
z"/>
<path fill="#2584BC" opacity="1.000000" stroke="none" 
	d="
M139.034500,379.006104 
	C144.983002,380.812775 142.915543,386.183899 143.996399,390.578339 
	C142.611115,391.000000 141.222214,391.000000 139.419708,390.539398 
	C139.015564,386.387909 139.025040,382.696991 139.034500,379.006104 
z"/>
<path fill="#118DD0" opacity="1.000000" stroke="none" 
	d="
M139.025055,378.556519 
	C139.025040,382.696991 139.015564,386.387909 139.003052,390.539398 
	C138.555557,391.000000 138.111099,391.000000 137.333328,391.000000 
	C137.006287,383.963928 137.012573,376.927856 137.039276,369.417358 
	C137.711655,371.997589 138.363632,375.052246 139.025055,378.556519 
z"/>
<path fill="#ABD25C" opacity="1.000000" stroke="none" 
	d="
M394.062561,11.161812 
	C394.727478,10.733685 395.405792,10.694705 396.834961,10.752995 
	C398.723846,10.900175 399.861908,10.950088 401.000000,11.000000 
	C401.000000,12.066669 401.000000,13.133339 401.000000,14.600004 
	C398.091064,15.056706 395.067200,15.344112 394.062561,11.161812 
z"/>
<path fill="#C8E195" opacity="1.000000" stroke="none" 
	d="
M401.000000,10.666667 
	C399.861908,10.950088 398.723846,10.900175 397.173035,10.714396 
	C397.930206,10.052156 399.100098,9.525784 400.635010,8.999706 
	C401.000000,9.444445 401.000000,9.888889 401.000000,10.666667 
z"/>
<path fill="#138ACB" opacity="1.000000" stroke="none" 
	d="
M202.052307,136.604050 
	C197.374451,143.729370 192.692047,150.492752 187.653717,157.663147 
	C186.200577,159.714890 185.103363,161.359604 184.006165,163.004333 
	C183.999710,163.444168 183.993271,163.884018 183.629700,164.696060 
	C182.180893,166.707993 181.089233,168.347717 179.997574,169.987442 
	C175.925720,178.725647 171.778610,187.429764 167.801834,196.210999 
	C163.244339,206.274597 158.778275,216.381027 154.422913,226.533386 
	C153.669006,228.290710 153.662079,230.368469 152.824356,232.682571 
	C151.218216,234.046494 150.097855,235.026077 148.977509,236.005661 
	C149.163940,234.395950 149.089081,232.697159 149.600174,231.198135 
	C150.305267,229.130142 151.698517,227.291824 152.364502,225.216339 
	C154.409454,218.843399 155.800873,212.222794 158.306534,206.047485 
	C160.371994,200.957062 163.876770,196.470596 166.346878,191.518555 
	C168.618469,186.964539 170.094177,182.010300 172.407761,177.481293 
	C174.954132,172.496597 178.049591,167.791840 180.918854,162.972870 
	C182.906189,159.635101 184.896927,156.299088 186.919022,152.982315 
	C191.247681,145.882248 195.597641,138.795151 200.328888,131.335251 
	C201.181412,130.938736 201.643951,130.909714 202.198868,131.122177 
	C202.528946,131.610397 202.766632,131.857117 203.004318,132.103851 
	C202.685455,133.483276 202.366608,134.862701 202.052307,136.604050 
z"/>
<path fill="#49B0E5" opacity="1.000000" stroke="none" 
	d="
M22.145761,10.701054 
	C24.076323,10.240500 26.062044,10.176412 28.528770,10.459152 
	C29.690336,11.182738 30.370899,11.559495 31.051464,11.936253 
	C33.690113,12.388480 36.328758,12.840708 39.613579,13.536928 
	C41.111023,13.984086 41.962299,14.187252 42.935989,14.694836 
	C45.357956,16.013306 47.657509,17.027359 50.220234,17.979057 
	C50.777454,17.714291 51.071503,17.511877 51.605698,17.370762 
	C51.845840,17.432058 52.338154,17.438766 52.338154,17.438766 
	C52.338154,17.438766 52.822540,17.350636 52.822540,17.350636 
	C52.822540,17.350636 53.152744,17.532854 53.450642,17.868542 
	C56.441650,19.541363 59.134762,20.878492 61.900131,22.480526 
	C62.648079,22.896721 63.323772,23.048016 64.299622,23.201588 
	C67.723099,24.786015 70.771004,26.556595 74.008865,27.852568 
	C75.212860,28.334469 76.861618,27.705149 78.307556,27.582561 
	C79.032013,27.935650 79.756477,28.288740 80.369583,29.050629 
	C80.880722,29.916185 81.503212,30.372940 82.437202,31.032482 
	C84.391670,31.639215 86.034630,32.043159 87.677597,32.447102 
	C88.184471,32.681614 88.691345,32.916126 89.492188,33.415375 
	C89.821121,33.847439 89.856087,34.014767 89.957397,34.495975 
	C90.724930,35.149181 91.426102,35.488503 92.404068,36.015175 
	C94.067871,36.900986 95.454880,37.599449 96.947906,38.616352 
	C99.741714,40.126694 102.429512,41.318596 105.265839,42.483543 
	C105.414360,42.456589 105.688835,42.330864 105.688835,42.330864 
	C105.688835,42.330864 105.657700,42.544533 105.727623,42.927559 
	C105.945862,44.074703 106.094177,44.838829 106.242493,45.602951 
	C103.291023,44.593937 100.244431,43.797295 97.409752,42.527550 
	C92.831398,40.476761 88.365990,38.165958 83.906509,35.861187 
	C81.844193,34.795326 79.926353,33.453247 77.907143,32.299156 
	C76.981201,31.769920 75.969833,31.389650 74.995316,30.945980 
	C72.410362,29.769119 69.828217,28.585941 67.237007,27.422989 
	C66.104210,26.914583 64.963379,26.420198 63.806515,25.970055 
	C60.392590,24.641672 56.990147,23.278530 53.539051,22.053370 
	C52.034409,21.519211 50.381805,21.407238 48.867386,20.894047 
	C45.987423,19.918104 43.187256,18.704016 40.299221,17.755449 
	C38.039112,17.013121 35.728134,16.266893 33.383446,15.975509 
	C29.128513,15.446727 24.665121,15.641642 22.145761,10.701054 
z"/>
<path fill="#2390CC" opacity="1.000000" stroke="none" 
	d="
M137.991455,311.998962 
	C137.995728,327.020569 138.000000,342.042206 137.603088,357.519684 
	C136.128494,355.651215 135.055099,353.326874 133.981720,351.002533 
	C133.982574,350.254761 133.983414,349.506989 133.990219,347.915527 
	C133.998062,343.589783 134.124542,340.102295 133.970917,336.627136 
	C133.769943,332.080505 133.347595,327.543701 133.020477,323.002655 
	C133.321594,321.897827 133.622711,320.792999 134.241302,319.079834 
	C136.172287,316.562836 132.795532,312.007660 137.991455,311.998962 
z"/>
<path fill="#49B0E5" opacity="1.000000" stroke="none" 
	d="
M147.047882,75.940643 
	C144.754639,74.240555 142.441025,72.567139 140.172043,70.835281 
	C133.977585,66.107246 127.926804,61.177937 121.568115,56.683453 
	C118.207329,54.307961 114.227921,52.825165 110.721115,50.630466 
	C109.251442,49.710682 108.282867,47.990223 107.466400,46.303329 
	C110.620178,47.223370 113.394020,48.473858 116.441284,49.926907 
	C118.410019,51.168770 120.105324,52.208076 121.911697,53.559563 
	C128.296753,58.287838 134.570740,62.703922 140.889526,67.091400 
	C140.934311,67.062798 140.883179,67.155983 140.954041,67.480003 
	C143.371948,69.508080 145.718979,71.212135 148.267349,72.972382 
	C148.468674,73.028572 148.874374,73.129326 148.897308,73.469498 
	C149.001221,74.485725 149.082199,75.161789 148.812164,75.882355 
	C147.990067,75.931450 147.518967,75.936043 147.047882,75.940643 
z"/>
<path fill="#1B9CDE" opacity="1.000000" stroke="none" 
	d="
M192.012878,120.989136 
	C189.864792,118.924492 187.690689,116.886139 185.573166,114.790627 
	C176.692245,106.002007 167.822006,97.202560 158.976807,88.378052 
	C158.539825,87.942101 158.375214,87.233147 158.456985,86.310577 
	C159.888672,85.977951 160.947144,85.986053 162.044876,85.972160 
	C162.084137,85.950157 162.162720,85.906082 162.157898,86.259964 
	C163.879364,87.856331 165.605682,89.098808 167.425232,90.415916 
	C167.518478,90.490547 167.714157,90.627525 167.569244,90.958748 
	C167.581421,91.908340 167.538940,92.725014 167.926163,93.114662 
	C172.162964,97.378029 176.651291,101.406136 180.700714,105.836853 
	C184.765198,110.284042 188.410339,115.114479 192.176407,120.078827 
	C192.079971,120.583511 192.046417,120.786316 192.012878,120.989136 
z"/>
<path fill="#138ACB" opacity="1.000000" stroke="none" 
	d="
M150.000000,241.014801 
	C149.436813,243.775864 148.873611,246.536911 147.787735,249.695847 
	C142.982285,252.999298 144.628006,257.136475 144.997559,261.008545 
	C144.265137,264.294861 143.532715,267.581177 142.406738,270.623840 
	C142.008163,269.919739 142.003174,269.459259 141.998169,268.998779 
	C139.958649,257.895050 145.474731,248.311920 148.855591,238.283997 
	C149.672073,239.271774 149.836029,240.143295 150.000000,241.014801 
z"/>
<path fill="#118DD0" opacity="1.000000" stroke="none" 
	d="
M141.633759,269.041473 
	C142.003174,269.459259 142.008163,269.919739 142.030075,270.726624 
	C142.051010,271.793701 142.055038,272.514343 141.726822,273.779968 
	C139.147980,279.048798 137.944016,283.872192 139.993454,289.006104 
	C139.268402,292.951080 138.543350,296.896057 137.438721,300.948059 
	C137.360336,292.107666 137.494507,283.148804 138.104279,274.222443 
	C138.225632,272.445892 140.167130,270.793701 141.633759,269.041473 
z"/>
<path fill="#118DD0" opacity="1.000000" stroke="none" 
	d="
M132.719009,323.293030 
	C133.347595,327.543701 133.769943,332.080505 133.970917,336.627136 
	C134.124542,340.102295 133.998062,343.589783 133.987900,347.541626 
	C133.327133,347.229370 132.111435,346.448517 132.109756,345.665039 
	C132.093979,338.304749 132.285736,330.944031 132.719009,323.293030 
z"/>
<path fill="#118DD0" opacity="1.000000" stroke="none" 
	d="
M137.998474,311.569946 
	C132.795532,312.007660 136.172287,316.562836 134.270493,318.734558 
	C131.763016,312.924042 132.638870,307.304871 136.687653,304.039551 
	C137.380707,306.378082 137.693115,308.759491 137.998474,311.569946 
z"/>
<path fill="#118DD0" opacity="1.000000" stroke="none" 
	d="
M133.691895,351.290283 
	C135.055099,353.326874 136.128494,355.651215 137.596893,357.988403 
	C137.867569,360.479980 137.743225,362.958740 137.343719,365.723022 
	C131.218292,362.374298 133.097672,356.776093 133.691895,351.290283 
z"/>
<path fill="#49B0E5" opacity="1.000000" stroke="none" 
	d="
M162.005615,85.994164 
	C160.947144,85.986053 159.888672,85.977951 158.435608,85.960571 
	C158.041016,85.951294 157.995041,85.495003 157.842865,84.950485 
	C155.827072,83.245659 153.963455,82.085358 152.099838,80.925064 
	C152.099838,80.925064 152.021149,80.981117 151.998230,80.606689 
	C151.311844,78.828964 150.648361,77.425667 150.336578,75.998184 
	C151.156937,75.939857 151.625595,75.905708 152.353119,76.041550 
	C153.355957,76.493874 154.099899,76.776192 154.843857,77.058510 
	C154.843857,77.058510 154.929352,77.521568 154.982285,78.097496 
	C157.358688,81.113670 159.682144,83.553917 162.005615,85.994164 
z"/>
<path fill="#90CFEF" opacity="1.000000" stroke="none" 
	d="
M116.167862,49.724350 
	C113.394020,48.473858 110.620178,47.223370 107.504112,45.924934 
	C107.161888,45.876991 106.690811,45.777336 106.466652,45.690144 
	C106.094177,44.838829 105.945862,44.074703 105.749847,43.033203 
	C106.157791,42.589596 106.613434,42.423367 107.551544,42.570557 
	C110.331818,44.279488 112.629623,45.674995 114.927429,47.070503 
	C114.927429,47.070503 115.360291,47.172516 115.633224,47.520775 
	C115.993393,48.487469 116.080627,49.105911 116.167862,49.724350 
z"/>
<path fill="#2489C3" opacity="1.000000" stroke="none" 
	d="
M150.383224,240.961700 
	C149.836029,240.143295 149.672073,239.271774 149.239075,238.195984 
	C148.974701,237.550354 148.979385,237.108994 148.980774,236.336655 
	C150.097855,235.026077 151.218216,234.046494 152.670502,233.037720 
	C152.257111,235.641891 151.511780,238.275238 150.383224,240.961700 
z"/>
<path fill="#1B9CDE" opacity="1.000000" stroke="none" 
	d="
M149.984879,76.022369 
	C150.648361,77.425667 151.311844,78.828964 152.022644,80.565010 
	C149.018341,81.146362 147.291382,79.803505 147.038269,76.321091 
	C147.518967,75.936043 147.990067,75.931450 149.016846,75.929489 
	C149.572525,75.932121 149.984879,76.022369 149.984879,76.022369 
z"/>
<path fill="#39A9E1" opacity="1.000000" stroke="none" 
	d="
M192.144882,121.297188 
	C192.046417,120.786316 192.079971,120.583511 192.495621,120.179085 
	C194.353897,121.888573 195.830109,123.799675 197.237640,125.775444 
	C197.168976,125.840111 197.031235,125.969032 197.031235,125.969025 
	C195.446457,124.514435 193.861679,123.059845 192.144882,121.297188 
z"/>
<path fill="#1B9CDE" opacity="1.000000" stroke="none" 
	d="
M152.105042,81.292641 
	C153.963455,82.085358 155.827072,83.245659 157.817108,84.722626 
	C155.999115,83.912941 154.054688,82.786583 152.105042,81.292641 
z"/>
<path fill="#39A9E1" opacity="1.000000" stroke="none" 
	d="
M202.106476,130.880692 
	C201.643951,130.909714 201.181412,130.938736 200.371918,130.978149 
	C199.048996,129.543625 198.073074,128.098694 197.064194,126.311401 
	C197.031235,125.969032 197.168976,125.840111 197.529510,125.913902 
	C199.295517,127.618690 200.701004,129.249695 202.106476,130.880692 
z"/>
<path fill="#C8E195" opacity="1.000000" stroke="none" 
	d="
M267.128723,67.107681 
	C275.329773,61.603329 283.395477,55.910480 291.737396,50.656170 
	C297.761688,46.861633 304.153259,43.650085 310.607056,40.381752 
	C310.833099,40.584976 310.953094,40.778179 310.747772,40.986359 
	C310.253906,41.394203 310.076294,41.666283 310.009644,42.010780 
	C305.615112,44.958065 301.184814,47.853745 296.834686,50.865170 
	C290.844849,55.011707 284.941467,59.283192 278.950867,63.428631 
	C275.189209,66.031677 271.196808,68.319046 267.559601,71.079605 
	C263.392365,74.242409 259.334412,77.592957 255.531799,81.182678 
	C249.056290,87.295593 242.619827,93.473770 236.529510,99.964706 
	C229.051437,107.934700 221.920059,116.231476 214.698410,124.439438 
	C213.071091,126.289017 211.690079,128.355316 209.643234,130.664886 
	C208.007309,130.999039 206.923859,130.990189 205.853607,130.661530 
	C205.874008,129.914948 205.881210,129.488129 206.152893,128.912201 
	C206.674194,128.233215 206.931015,127.703339 207.508606,127.074356 
	C210.982971,123.157028 213.908600,119.119408 217.332809,115.561668 
	C227.689056,104.801544 238.116013,94.102829 248.761642,83.630486 
	C254.617157,77.870308 260.967438,72.613113 267.094666,67.129135 
	C267.094666,67.129135 267.111633,67.106972 267.128723,67.107681 
z"/>
<path fill="#7AB177" opacity="1.000000" stroke="none" 
	d="
M205.840393,130.981323 
	C206.923859,130.990189 208.007309,130.999039 209.493347,131.005280 
	C212.485046,135.411102 215.054489,139.831238 217.667679,144.225372 
	C222.130066,151.728973 226.596390,159.230423 231.106949,166.705093 
	C233.806046,171.177872 236.910416,175.437592 239.254135,180.084824 
	C241.837463,185.207184 243.736435,190.672943 245.984818,195.967316 
	C246.484879,197.144867 247.262894,198.201935 247.801620,199.365997 
	C248.885422,201.707840 250.336121,203.998749 250.817474,206.470016 
	C251.400284,209.462173 250.582703,212.588287 253.930786,214.817108 
	C255.008087,215.534271 254.614975,218.460236 254.790649,220.805847 
	C253.176224,218.936737 251.367004,216.776138 250.221283,214.307602 
	C248.227295,210.011444 246.871292,205.416718 244.840469,201.140640 
	C240.142380,191.248413 235.631866,181.227982 230.247818,171.710663 
	C223.612030,159.980637 216.194931,148.690903 209.039688,137.258331 
	C207.999374,135.596115 206.538147,134.197357 205.185852,132.151550 
	C205.269791,131.322922 205.516586,131.107895 205.840393,130.981323 
z"/>
<path fill="#C8E195" opacity="1.000000" stroke="none" 
	d="
M312.118469,40.676643 
	C313.595245,38.828316 315.183075,36.573265 317.353607,35.525890 
	C325.915314,31.394522 334.663544,27.650337 343.334259,23.743998 
	C345.582825,22.730984 347.738373,21.470367 350.055389,20.665094 
	C351.591095,20.131353 353.338165,20.205673 354.749878,20.458834 
	C352.005981,22.277102 349.502747,23.644321 346.999542,25.011539 
	C345.833527,25.175919 344.667511,25.340298 342.878784,25.747780 
	C339.806335,27.606085 337.356598,29.221291 334.906830,30.836494 
	C333.748505,30.772026 332.590210,30.707558 330.876526,30.851837 
	C328.547211,32.381355 326.773254,33.702126 324.999268,35.022888 
	C323.827423,35.177361 322.655548,35.331841 320.888184,35.771591 
	C318.497314,37.652660 316.701965,39.248459 314.906616,40.844254 
	C314.103485,40.837784 313.300354,40.831314 312.118469,40.676643 
z"/>
<path fill="#C8E195" opacity="1.000000" stroke="none" 
	d="
M372.061584,15.520262 
	C376.292847,13.269588 380.895569,11.211313 385.901123,9.278635 
	C386.234161,9.758029 386.164337,10.111826 385.670410,10.732430 
	C381.797058,12.602706 378.347839,14.206175 374.898621,15.809649 
	C374.076752,15.777322 373.254913,15.744991 372.061584,15.520262 
z"/>
<path fill="#C8E195" opacity="1.000000" stroke="none" 
	d="
M357.067932,20.542980 
	C360.336334,16.740442 364.461945,14.279394 369.926147,15.131015 
	C369.998749,15.426014 370.024353,15.705531 369.614136,15.841919 
	C366.102295,17.589846 363.000641,19.201385 359.899017,20.812922 
	C359.079559,20.785141 358.260101,20.757362 357.067932,20.542980 
z"/>
<path fill="#B8D975" opacity="1.000000" stroke="none" 
	d="
M375.320435,15.869136 
	C378.347839,14.206175 381.797058,12.602706 385.625732,11.001963 
	C384.433502,16.500404 379.672760,15.349235 375.320435,15.869136 
z"/>
<path fill="#B8D975" opacity="1.000000" stroke="none" 
	d="
M360.309601,20.870762 
	C363.000641,19.201385 366.102295,17.589846 369.592377,15.980566 
	C368.838348,21.272158 364.206360,20.027678 360.309601,20.870762 
z"/>
<path fill="#B8D975" opacity="1.000000" stroke="none" 
	d="
M347.231384,25.277834 
	C349.502747,23.644321 352.005981,22.277102 354.865753,20.763378 
	C355.222321,20.616871 355.507874,20.673244 355.649261,20.694351 
	C355.186340,26.069910 350.976776,25.206888 347.231384,25.277834 
z"/>
<path fill="#B8D975" opacity="1.000000" stroke="none" 
	d="
M335.301514,30.886688 
	C337.356598,29.221291 339.806335,27.606085 342.628052,25.995342 
	C342.124176,29.951485 339.181671,30.845795 335.301514,30.886688 
z"/>
<path fill="#92C163" opacity="1.000000" stroke="none" 
	d="
M260.909637,230.718002 
	C259.252594,228.969147 257.632721,226.842407 256.020081,224.348022 
	C257.667145,226.100281 259.307007,228.220200 260.909637,230.718002 
z"/>
<path fill="#B8D975" opacity="1.000000" stroke="none" 
	d="
M315.283264,40.858353 
	C316.701965,39.248459 318.497314,37.652660 320.637451,36.021355 
	C321.438354,40.043747 318.134644,40.006641 315.283264,40.858353 
z"/>
<path fill="#B8D975" opacity="1.000000" stroke="none" 
	d="
M325.214050,35.269897 
	C326.773254,33.702126 328.547211,32.381355 330.663208,31.032463 
	C331.193665,35.038380 328.387024,35.371258 325.214050,35.269897 
z"/>
<path fill="#B8D975" opacity="1.000000" stroke="none" 
	d="
M310.225220,41.897095 
	C310.076294,41.666283 310.253906,41.394203 310.771545,41.097569 
	C310.897003,41.320900 310.710388,41.581837 310.225220,41.897095 
z"/>
<path fill="#E6F2CF" opacity="1.000000" stroke="none" 
	d="
M266.704590,67.086433 
	C260.967438,72.613113 254.617157,77.870308 248.761642,83.630486 
	C238.116013,94.102829 227.689056,104.801544 217.332809,115.561668 
	C213.908600,119.119408 210.982971,123.157028 207.449585,127.020287 
	C207.069809,127.065338 206.957626,126.957855 206.964050,126.713058 
	C206.970490,126.468262 206.959152,125.978630 206.968842,125.658707 
	C206.983063,124.912903 206.987564,124.487030 206.992065,124.061157 
	C213.925125,115.675323 220.398621,106.847343 227.921188,99.028717 
	C235.359726,91.297424 243.850983,84.577866 251.894394,77.430191 
	C255.076233,74.602692 258.199829,71.695175 261.545776,69.074066 
	C262.859406,68.045036 264.709015,67.700172 266.704590,67.086433 
z"/>
<path fill="#75C3E9" opacity="1.000000" stroke="none" 
	d="
M205.853607,130.661530 
	C205.516586,131.107895 205.269791,131.322922 205.014496,131.864075 
	C204.501297,132.078812 204.073593,132.055893 203.325104,132.068420 
	C202.766632,131.857117 202.528946,131.610397 202.198868,131.122177 
	C200.701004,129.249695 199.295517,127.618690 197.598175,125.849236 
	C195.830109,123.799675 194.353897,121.888573 192.558487,119.877213 
	C188.410339,115.114479 184.765198,110.284042 180.700714,105.836853 
	C176.651291,101.406136 172.162964,97.378029 167.926163,93.114662 
	C167.538940,92.725014 167.581421,91.908340 167.863144,91.053856 
	C170.592117,92.656952 173.012177,94.357864 175.146790,96.362724 
	C180.398682,101.295341 185.519272,106.367722 190.692657,111.383896 
	C190.692657,111.383904 190.720062,111.746407 190.863907,112.239960 
	C192.598938,114.214264 194.190125,115.695015 195.781326,117.175758 
	C195.781326,117.175758 195.913971,117.111176 195.914764,117.499550 
	C198.830093,120.966286 201.744644,124.044640 204.754150,127.404282 
	C205.195526,128.144150 205.541962,128.602737 205.888397,129.061325 
	C205.881210,129.488129 205.874008,129.914948 205.853607,130.661530 
z"/>
<path fill="#DAEFF9" opacity="1.000000" stroke="none" 
	d="
M190.790222,110.987259 
	C185.519272,106.367722 180.398682,101.295341 175.146790,96.362724 
	C173.012177,94.357864 170.592117,92.656952 168.008057,90.722633 
	C167.714157,90.627525 167.518478,90.490547 167.353912,90.127876 
	C165.885330,88.413750 164.581314,87.062294 163.235672,85.362495 
	C163.131821,84.314224 163.069595,83.614288 163.007370,82.914360 
	C164.788177,83.622643 166.969589,83.899055 168.279938,85.114525 
	C173.736404,90.175949 179.115463,95.350418 184.145645,100.829758 
	C186.794342,103.714966 188.665527,107.313934 190.790222,110.987259 
z"/>
<path fill="#B9E0F5" opacity="1.000000" stroke="none" 
	d="
M77.967957,27.357956 
	C76.861618,27.705149 75.212860,28.334469 74.008865,27.852568 
	C70.771004,26.556595 67.723099,24.786015 64.141914,22.908747 
	C63.065327,22.480963 62.446598,22.348293 61.827873,22.215624 
	C59.134762,20.878492 56.441650,19.541363 53.638138,17.888683 
	C57.839474,16.540190 61.709572,16.981226 64.857788,20.569704 
	C65.522751,21.327665 66.823387,22.020395 67.773720,21.951481 
	C72.209900,21.629789 75.228348,23.728207 77.967957,27.357956 
z"/>
<path fill="#CCE9F8" opacity="1.000000" stroke="none" 
	d="
M155.142334,76.869568 
	C154.099899,76.776192 153.355957,76.493874 152.304703,75.707581 
	C150.956390,74.512184 149.915390,73.820755 148.874374,73.129326 
	C148.874374,73.129326 148.468674,73.028572 148.226288,72.631531 
	C145.616989,70.541664 143.250076,68.848824 140.883179,67.155983 
	C140.883179,67.155983 140.934311,67.062798 140.907562,66.738663 
	C139.256424,64.940056 137.632019,63.465572 136.007629,61.991093 
	C142.159317,60.636288 144.705185,66.413673 149.028412,68.666420 
	C150.975204,69.680855 152.713394,71.284828 154.188309,72.940224 
	C154.992325,73.842636 155.047745,75.412041 155.142334,76.869568 
z"/>
<path fill="#CBE8F7" opacity="1.000000" stroke="none" 
	d="
M116.441284,49.926907 
	C116.080627,49.105911 115.993393,48.487469 115.851532,47.563023 
	C118.980072,47.220661 128.741638,53.430634 129.618866,56.626472 
	C126.773788,55.732330 124.287209,54.489857 121.800636,53.247383 
	C120.105324,52.208076 118.410019,51.168770 116.441284,49.926907 
z"/>
<path fill="#90CFEF" opacity="1.000000" stroke="none" 
	d="
M121.911697,53.559566 
	C124.287209,54.489857 126.773788,55.732330 129.607849,57.009220 
	C129.955353,57.043636 130.386963,57.144974 130.705566,57.497910 
	C132.613190,58.956367 134.202225,60.061893 135.791245,61.167419 
	C135.791245,61.167416 135.874283,61.585918 135.940948,61.788506 
	C137.632019,63.465572 139.256424,64.940056 140.862762,66.767273 
	C134.570740,62.703922 128.296753,58.287838 121.911697,53.559566 
z"/>
<path fill="#DAEFF9" opacity="1.000000" stroke="none" 
	d="
M204.659195,127.123001 
	C201.744644,124.044640 198.830093,120.966286 195.865265,117.554245 
	C197.271805,117.746925 198.914169,118.005661 200.144638,118.858597 
	C202.319366,120.366096 204.243332,122.235382 206.632172,124.007202 
	C206.987564,124.487030 206.983063,124.912903 206.762100,125.767792 
	C206.285507,126.392845 206.117508,126.649269 205.695572,127.001106 
	C205.119400,127.065102 204.889297,127.094048 204.659195,127.123001 
z"/>
<path fill="#D8EEF9" opacity="1.000000" stroke="none" 
	d="
M42.813576,14.390418 
	C41.962299,14.187252 41.111023,13.984086 40.021374,13.554261 
	C39.829510,13.112710 39.876019,12.897819 39.950699,12.354631 
	C44.649731,12.495895 50.316654,10.127453 52.858681,16.955076 
	C52.822540,17.350636 52.338154,17.438766 52.338154,17.438766 
	C52.338154,17.438766 51.845840,17.432058 51.270195,17.259398 
	C50.462391,17.058273 50.230228,17.029808 49.683186,16.848064 
	C47.183392,15.926663 44.998486,15.158541 42.813576,14.390418 
z"/>
<path fill="#90CFEF" opacity="1.000000" stroke="none" 
	d="
M162.668518,82.882889 
	C163.069595,83.614288 163.131821,84.314224 162.960419,85.436104 
	C162.538773,85.874062 162.350754,85.890068 162.162720,85.906082 
	C162.162720,85.906082 162.084137,85.950157 162.044876,85.972160 
	C159.682144,83.553917 157.358688,81.113670 155.023132,78.329376 
	C157.450592,79.607353 159.890121,81.229385 162.668518,82.882889 
z"/>
<path fill="#CBE8F7" opacity="1.000000" stroke="none" 
	d="
M87.756378,32.070759 
	C86.034630,32.043159 84.391670,31.639215 82.416824,30.683586 
	C82.052635,29.660835 82.020325,29.189766 81.988022,28.718699 
	C84.781181,27.030886 85.630470,27.463104 87.756378,32.070759 
z"/>
<path fill="#CBE8F7" opacity="1.000000" stroke="none" 
	d="
M114.945831,46.683479 
	C112.629623,45.674995 110.331818,44.279488 107.919563,42.578606 
	C110.859314,42.425949 114.251999,41.976341 114.945831,46.683479 
z"/>
<path fill="#90CFEF" opacity="1.000000" stroke="none" 
	d="
M105.117317,42.510498 
	C102.429512,41.318596 99.741714,40.126694 97.166222,38.454987 
	C97.520683,37.719734 97.762833,37.464283 98.004982,37.208828 
	C98.403122,37.216705 98.801254,37.224586 99.606415,37.562080 
	C101.714737,39.431301 103.416031,40.970898 105.117317,42.510498 
z"/>
<path fill="#CBE8F7" opacity="1.000000" stroke="none" 
	d="
M97.865036,36.875351 
	C97.762833,37.464283 97.520683,37.719734 97.060211,38.136551 
	C95.454880,37.599449 94.067871,36.900986 92.384399,35.684761 
	C92.054329,34.503834 92.020721,33.840672 91.987106,33.177509 
	C93.899765,34.298965 95.812431,35.420422 97.865036,36.875351 
z"/>
<path fill="#CBE8F7" opacity="1.000000" stroke="none" 
	d="
M105.265839,42.483543 
	C103.416031,40.970898 101.714737,39.431301 99.903854,37.590973 
	C103.263039,36.625736 105.670769,37.487099 105.781609,41.924522 
	C105.688835,42.330864 105.414360,42.456589 105.265839,42.483543 
z"/>
<path fill="#DAEFF9" opacity="1.000000" stroke="none" 
	d="
M195.852997,116.765404 
	C194.190125,115.695015 192.598938,114.214264 190.940552,112.404785 
	C194.080383,111.704170 196.384293,112.398445 195.852997,116.765404 
z"/>
<path fill="#CBE8F7" opacity="1.000000" stroke="none" 
	d="
M135.835266,60.796478 
	C134.202225,60.061893 132.613190,58.956367 130.921875,57.546303 
	C132.506165,58.303017 134.192734,59.364277 135.835266,60.796478 
z"/>
<path fill="#90CFEF" opacity="1.000000" stroke="none" 
	d="
M91.745979,33.131775 
	C92.020721,33.840672 92.054329,34.503834 92.107613,35.497414 
	C91.426102,35.488503 90.724930,35.149181 90.185760,34.338997 
	C90.571213,33.586330 90.794655,33.304520 91.018097,33.022709 
	C91.018097,33.022709 91.504852,33.086040 91.745979,33.131775 
z"/>
<path fill="#90CFEF" opacity="1.000000" stroke="none" 
	d="
M81.655853,28.804176 
	C82.020325,29.189766 82.052635,29.660835 82.105316,30.480799 
	C81.503212,30.372940 80.880722,29.916185 80.466118,29.284622 
	C80.890572,29.036427 81.107132,28.963039 81.655853,28.804176 
z"/>
<path fill="#CBE8F7" opacity="1.000000" stroke="none" 
	d="
M90.699768,33.015980 
	C90.794655,33.304520 90.571213,33.586330 90.119400,34.025116 
	C89.856087,34.014767 89.821121,33.847439 89.775734,33.425167 
	C89.970695,33.116566 90.176064,33.062908 90.699768,33.015980 
z"/>
<path fill="#2788C0" opacity="1.000000" stroke="none" 
	d="
M140.379272,288.955322 
	C137.944016,283.872192 139.147980,279.048798 141.737305,274.141296 
	C144.820541,277.520660 144.106873,285.632812 140.379272,288.955322 
z"/>
<path fill="#2589C3" opacity="1.000000" stroke="none" 
	d="
M145.371460,260.940674 
	C144.628006,257.136475 142.982285,252.999298 147.634674,250.050674 
	C147.251312,253.629364 146.498337,257.251099 145.371460,260.940674 
z"/>
<path fill="#1C83BE" opacity="1.000000" stroke="none" 
	d="
M180.334503,169.944092 
	C181.089233,168.347717 182.180893,166.707993 183.623840,165.025940 
	C182.873886,166.622635 181.772659,168.261688 180.334503,169.944092 
z"/>
<path fill="#1C83BE" opacity="1.000000" stroke="none" 
	d="
M184.341827,162.955566 
	C185.103363,161.359604 186.200577,159.714890 187.644318,158.031525 
	C186.886383,159.630859 185.781937,161.268814 184.341827,162.955566 
z"/>
<path fill="#85CAED" opacity="1.000000" stroke="none" 
	d="
M30.999302,11.609674 
	C30.370899,11.559495 29.690336,11.182738 28.923958,10.503696 
	C29.541143,10.561973 30.244143,10.922533 30.999302,11.609674 
z"/>
<path fill="#85CAED" opacity="1.000000" stroke="none" 
	d="
M42.935989,14.694836 
	C44.998486,15.158541 47.183392,15.926663 49.681454,17.108412 
	C49.982090,17.695160 49.969578,17.868284 49.957062,18.041412 
	C47.657509,17.027359 45.357956,16.013306 42.935989,14.694836 
z"/>
<path fill="#85CAED" opacity="1.000000" stroke="none" 
	d="
M61.900131,22.480526 
	C62.446598,22.348293 63.065327,22.480963 63.841759,22.906471 
	C63.323772,23.048016 62.648079,22.896721 61.900131,22.480526 
z"/>
<path fill="#B9E0F5" opacity="1.000000" stroke="none" 
	d="
M50.220234,17.979057 
	C49.969578,17.868284 49.982090,17.695160 49.996338,17.261692 
	C50.230228,17.029808 50.462391,17.058273 51.030052,17.198101 
	C51.071503,17.511877 50.777454,17.714291 50.220234,17.979057 
z"/>
<path fill="#90CFEF" opacity="1.000000" stroke="none" 
	d="
M140.954041,67.480003 
	C143.250076,68.848824 145.616989,70.541664 148.024963,72.575348 
	C145.718979,71.212135 143.371948,69.508080 140.954041,67.480003 
z"/>
<path fill="#90CFEF" opacity="1.000000" stroke="none" 
	d="
M148.897308,73.469498 
	C149.915390,73.820755 150.956390,74.512184 152.045822,75.537582 
	C151.625595,75.905708 151.156937,75.939857 150.336578,75.998184 
	C149.984879,76.022369 149.572525,75.932121 149.367859,75.884979 
	C149.082199,75.161789 149.001221,74.485725 148.897308,73.469498 
z"/>
<path fill="#75C3E9" opacity="1.000000" stroke="none" 
	d="
M162.157898,86.259964 
	C162.350754,85.890068 162.538773,85.874062 163.002045,85.784447 
	C164.581314,87.062294 165.885330,88.413750 167.260666,90.053246 
	C165.605682,89.098808 163.879364,87.856331 162.157898,86.259964 
z"/>
<path fill="#E6F2CF" opacity="1.000000" stroke="none" 
	d="
M204.754150,127.404282 
	C204.889297,127.094048 205.119400,127.065102 205.924377,127.005661 
	C206.499252,126.975182 206.957626,126.957855 206.957626,126.957855 
	C206.957626,126.957855 207.069809,127.065338 207.128815,127.119400 
	C206.931015,127.703339 206.674194,128.233215 206.152893,128.912201 
	C205.541962,128.602737 205.195526,128.144150 204.754150,127.404282 
z"/>
<path fill="#FFFFFF" opacity="1.000000" stroke="none" 
	d="
M206.964050,126.713058 
	C206.957626,126.957855 206.499252,126.975182 206.270447,126.970627 
	C206.117508,126.649269 206.285507,126.392845 206.752411,126.087708 
	C206.959152,125.978630 206.970490,126.468262 206.964050,126.713058 
z"/>
</svg>